<?xml version="1.0" encoding="utf-8"?>
<!-- Generator: Adobe Illustrator 24.1.3, SVG Export Plug-In . SVG Version: 6.00 Build 0)  -->
<svg version="1.1" id="레이어_1" xmlns="http://www.w3.org/2000/svg" xmlns:xlink="http://www.w3.org/1999/xlink" x="0px"
	 y="0px" viewBox="0 0 1024 1024" style="enable-background:new 0 0 1024 1024;" xml:space="preserve">
<style type="text/css">
	.st0{fill:#D8CA8C;}
	.st1{fill:#8AC457;}
	.st2{fill:#B6D599;}
	.st3{fill:none;stroke:#3C6F35;stroke-width:8;stroke-linecap:round;stroke-linejoin:round;stroke-miterlimit:10;}
</style>
<g>
	<polyline class="st0" points="927.7,752 512,992 96.3,752 96.3,752 512,512 927.7,752 	"/>
	<polygon class="st1" points="927.7,752 512,512 512,32 927.7,272 	"/>
	<path class="st2" d="M512,32c0,0-415.7,240-415.7,240l0,480c0,0,49.8-28.8,115-66.4L512,512L512,32z M356.1,362v240l-103.9,60V422
		L356.1,362z M511.6,512.3c0.3-0.2,0.4-0.3,0.4-0.3L511.6,512.3z M361.9,598.6C361.9,598.6,361.9,598.6,361.9,598.6L361.9,598.6z
		 M393.9,580.2c0.1,0,0.1-0.1,0.2-0.1L393.9,580.2z M402.5,575.2c0.1-0.1,0.3-0.2,0.4-0.3L402.5,575.2z M410.6,570.5
		c3.3-1.9,6.6-3.8,9.8-5.7L410.6,570.5z M443.2,551.7c0.1-0.1,0.2-0.1,0.3-0.2L443.2,551.7z M455.9,544.4c1-0.6,2-1.2,3-1.7
		L455.9,544.4z M463.1,540.2c3-1.7,5.8-3.4,8.6-5L463.1,540.2z M485.9,527.1c0.9-0.5,1.8-1,2.6-1.5L485.9,527.1z M492.1,523.5
		c4.1-2.4,7.6-4.4,10.5-6.1L492.1,523.5z M504.1,516.6c0.5-0.3,0.9-0.5,1.3-0.8L504.1,516.6z M508.6,514c0.9-0.5,1.6-0.9,2.2-1.2
		L508.6,514z"/>
</g>
<polyline class="st3" points="96.3,752 96.3,272 512,32 512,512 96.3,752 512,992 927.7,752 512,512 927.7,752 927.7,272 512,32 "/>
<polygon class="st3" points="252.2,662 252.2,422 356.1,362 356.1,602 "/>
</svg>
