<svg xmlns="http://www.w3.org/2000/svg" viewBox="0 0 352 64">
  <defs>
    <style>
      .cls-1 {
        fill: #abaaaa;
      }
    </style>
  </defs>
  <g id="레이어_2" data-name="레이어 2">
    <g id="레이어_1-2" data-name="레이어 1">
      <g>
        <path class="cls-1" d="M32,4.71l8.08,17.21.45,1,1.06.16,18.26,2.8L46.57,39.45l-.71.72.17,1,3.11,19.09L33,51.32l-1-.54-1,.54L14.86,60.26,18,41.17l.17-1-.71-.72L4.15,25.84,22.41,23l1.06-.16.45-1L32,4.71M32,0,22.11,21.07,0,24.45,16,40.84,12.22,64,32,53.07,51.78,64,48,40.84,64,24.45,41.89,21.07,32,0Z"/>
        <path class="cls-1" d="M104,4.71l8.08,17.21.45,1,1.06.16,18.26,2.8L118.57,39.45l-.71.72.17,1,3.11,19.09L105,51.32l-1-.54-1,.54L86.86,60.26,90,41.17l.17-1-.71-.72L76.15,25.84,94.41,23l1.06-.16.45-1L104,4.71M104,0,94.11,21.07,72,24.45,88,40.84,84.22,64,104,53.07,123.78,64,120,40.84l16-16.39-22.11-3.38L104,0Z"/>
        <path class="cls-1" d="M176,4.71l8.08,17.21.45,1,1.06.16,18.26,2.8L190.57,39.45l-.71.72.17,1,3.11,19.09L177,51.32l-1-.54-1,.54-16.17,8.94L162,41.17l.17-1-.71-.72L148.15,25.84,166.41,23l1.06-.16.45-1L176,4.71M176,0l-9.89,21.07L144,24.45l16,16.39L156.22,64,176,53.07,195.78,64,192,40.84l16-16.39-22.11-3.38L176,0Z"/>
        <path class="cls-1" d="M248,4.71l8.08,17.21.45,1,1.06.16,18.26,2.8L262.57,39.45l-.71.72.17,1,3.11,19.09L249,51.32l-1-.54-1,.54-16.17,8.94L234,41.17l.17-1-.71-.72L220.15,25.84,238.41,23l1.06-.16.45-1L248,4.71M248,0l-9.89,21.07L216,24.45l16,16.39L228.22,64,248,53.07,267.78,64,264,40.84l16-16.39-22.11-3.38L248,0Z"/>
        <path class="cls-1" d="M320,4.71l8.08,17.21.45,1,1.06.16,18.26,2.8L334.57,39.45l-.71.72.17,1,3.11,19.09L321,51.32l-1-.54-1,.54-16.17,8.94L306,41.17l.17-1-.71-.72L292.15,25.84,310.41,23l1.06-.16.45-1L320,4.71M320,0l-9.89,21.07L288,24.45l16,16.39L300.22,64,320,53.07,339.78,64,336,40.84l16-16.39-22.11-3.38L320,0Z"/>
      </g>
    </g>
  </g>
</svg>
