<svg xmlns="http://www.w3.org/2000/svg" viewBox="0 0 352 64">
  <defs>
    <style>
      .cls-1 {
        fill: #f5c243;
      }
    </style>
  </defs>
  <g id="레이어_2" data-name="레이어 2">
    <g id="레이어_1-2" data-name="레이어 1">
      <g>
        <polygon class="cls-1" points="32 0 41.89 21.07 64 24.45 48 40.84 51.78 64 32 53.07 12.22 64 16 40.84 0 24.45 22.11 21.07 32 0"/>
        <polygon class="cls-1" points="104 0 113.89 21.07 136 24.45 120 40.84 123.78 64 104 53.07 84.22 64 88 40.84 72 24.45 94.11 21.07 104 0"/>
        <polygon class="cls-1" points="176 0 185.89 21.07 208 24.45 192 40.84 195.78 64 176 53.07 156.22 64 160 40.84 144 24.45 166.11 21.07 176 0"/>
        <polygon class="cls-1" points="248 0 257.89 21.07 280 24.45 264 40.84 267.78 64 248 53.07 228.22 64 232 40.84 216 24.45 238.11 21.07 248 0"/>
        <polygon class="cls-1" points="320 0 329.89 21.07 352 24.45 336 40.84 339.78 64 320 53.07 300.22 64 304 40.84 288 24.45 310.11 21.07 320 0"/>
      </g>
    </g>
  </g>
</svg>
