<svg id="bc93dffd-689c-4681-a8af-dd424e3006da" data-name="레이어 1" xmlns="http://www.w3.org/2000/svg" width="64" height="64" viewBox="0 0 64 64">
  <defs>
    <style>
      .abc486d4-0f7e-4a6f-8bc4-6db87c9b2fab {
        fill: #aaa;
      }
    </style>
  </defs>
  <path class="abc486d4-0f7e-4a6f-8bc4-6db87c9b2fab" d="M32,7.06l7.17,15.28.68,1.45,1.59.24,16.34,2.5L45.85,38.75,44.8,39.83l.24,1.5,2.78,17.06-14.37-8L32,49.64l-1.45.8-14.37,8L19,41.33l.24-1.5-1.05-1.08L6.22,26.53,22.56,24l1.59-.24.68-1.45L32,7.06M32,0,22.11,21.07,0,24.45,16,40.84,12.22,64,32,53.07,51.78,64,48,40.84,64,24.45,41.89,21.07,32,0Z"/>
</svg>
