<svg xmlns="http://www.w3.org/2000/svg" width="1139.96" height="236.03" viewBox="0 0 1139.96 236.03"><g id="ba7daa69-2d6c-4e5a-83da-03ded204602a" data-name="레이어 2"><g id="e5ff08d7-06c8-428c-9882-e87a4f1832cb" data-name="레이어 1"><path d="M18.94,147.46q1.29,1.28,4.87,1.53a271.94,271.94,0,0,0,39.93-1.28,324.36,324.36,0,0,0,36.1-6.14q4.35-1,5.12,3.07l1.28,7.17q.77,3.58-3.33,4.61a256,256,0,0,1-38,6.78,308.82,308.82,0,0,1-44.68,1.66q-11.52-.51-15.87-5.5T0,143.62V21.76q0-3.59,3.58-3.58h10.5q3.58,0,3.58,3.58V142.34C17.66,144.9,18.09,146.6,18.94,147.46ZM136.45,96.77H169V3.58C169,1.2,170.15,0,172.54,0h9.73c2.39,0,3.59,1.2,3.59,3.58V232.45c0,2.38-1.2,3.58-3.59,3.58h-9.73c-2.39,0-3.58-1.2-3.58-3.58V112.13H136.45V222.72q0,3.59-3.59,3.58h-9.72c-2.4,0-3.59-1.19-3.59-3.58V7.94c0-2.39,1.19-3.59,3.59-3.59h9.72q3.58,0,3.59,3.59Z"/><path d="M345.08,30.21a96.36,96.36,0,0,1-9.21,18.94A151.38,151.38,0,0,1,321.79,68.1a138.08,138.08,0,0,0,22.66,18.56,129.36,129.36,0,0,0,26.75,13.69,1.75,1.75,0,0,1,1.4,1.92A9.36,9.36,0,0,1,372,105l-5.12,9a4.45,4.45,0,0,1-1.79,1.79c-.68.35-1.79.09-3.33-.77a194.2,194.2,0,0,1-27.51-15.36,155.65,155.65,0,0,1-23.94-19.45,223.83,223.83,0,0,1-31.75,25.73,235.28,235.28,0,0,1-37.63,20.6,13.85,13.85,0,0,1-2.56.77,1.83,1.83,0,0,1-2-1l-5.12-9a2.71,2.71,0,0,1-.13-2.69,3.48,3.48,0,0,1,1.92-1.92q35.58-16.89,58-36.74a146,146,0,0,0,34.69-44.67c1.19-2.39,1.36-4.09.51-5.12s-2.47-1.53-4.86-1.53h-75q-3.08,0-3.07-3.33v-9q0-3.07,3.58-3.07h81.41q13.31,0,17.15,4.73T345.08,30.21ZM291.07,234a50.82,50.82,0,0,1-9.86-.76,10.71,10.71,0,0,1-5.76-2.95,11.68,11.68,0,0,1-2.81-5.63,42,42,0,0,1-.77-8.83V142.34a2.43,2.43,0,0,1,1-2.05,3.76,3.76,0,0,1,2.31-.77h11.26a3,3,0,0,1,2.18.9,2.72,2.72,0,0,1,.89,1.92v27.13H400.38V142.85a3.43,3.43,0,0,1,.9-2.31,2.78,2.78,0,0,1,2.17-1h11.27a3.39,3.39,0,0,1,2.3.9,2.79,2.79,0,0,1,1,2.17v75q0,9.72-4.09,13.06T398.59,234Zm-1.54-49.15v27.65q0,3.84,1.28,5t4.87,1.15h98.56q3.58,0,4.86-1.15t1.28-5V184.83Zm124.93-59.39H404q-3.58,0-3.58-3.58V3.58C400.38,1.2,401.57,0,404,0h10.5C416.85,0,418,1.2,418,3.58V121.86Q418,125.45,414.46,125.44Z"/><path d="M573.43,9A5,5,0,0,1,576,8.19h58.88a38.42,38.42,0,0,1,9.86,1,11.66,11.66,0,0,1,5.76,3.32,14,14,0,0,1,2.94,6.28,45.42,45.42,0,0,1,.9,9.85q.25,9.48-.38,20.23T652,70.78q-1.29,11.14-3.2,21.76t-4.23,19.84h37.12a4.43,4.43,0,0,1,2.56.9,2.83,2.83,0,0,1,1.28,2.43v8.71a2.94,2.94,0,0,1-1.28,2.3,4.11,4.11,0,0,1-2.56,1H581.11V230.66a4.26,4.26,0,0,1-.89,2.68,2.92,2.92,0,0,1-2.43,1.16h-11a3,3,0,0,1-2.31-1.16,3.9,3.9,0,0,1-1-2.68V127.74H464.12a3.94,3.94,0,0,1-2.69-1,3.05,3.05,0,0,1-1.15-2.3v-8.71a2.94,2.94,0,0,1,1.15-2.43,4.26,4.26,0,0,1,2.69-.9h73.47a432.32,432.32,0,0,0,9.22-43.13,256.74,256.74,0,0,0,3.58-40.83c0-2.39-.38-3.88-1.15-4.48s-2.35-.9-4.73-.9H485.63a4.41,4.41,0,0,1-2.56-.9A2.58,2.58,0,0,1,481.79,20V11.26A2.5,2.5,0,0,1,483.07,9a4.93,4.93,0,0,1,2.56-.77h62.2q11.77,0,15.62,4.48t3.84,16q0,9.73-.9,20.48T564,70.78q-1.53,10.89-3.84,21.51T555,112.38h72.71q2-8.7,4-19.71t3.2-22.4q1.29-11.38,2-22.27t.51-19.58c0-2.39-.38-3.88-1.15-4.48s-2.35-.9-4.73-.9H576a4.45,4.45,0,0,1-2.56-.9A2.6,2.6,0,0,1,572.15,20V11.26A2.52,2.52,0,0,1,573.43,9Z"/><path d="M721.4,37.38q0-10.76,4.09-14.47t15.36-3.71h75.27A50.65,50.65,0,0,1,826,20a11.91,11.91,0,0,1,5.89,2.81,10.63,10.63,0,0,1,2.95,5.64,43.92,43.92,0,0,1,.76,9v113.4q0,10.75-4.09,14.47T816.12,169H740.85a50.65,50.65,0,0,1-9.85-.77,11.31,11.31,0,0,1-5.89-2.94,11.18,11.18,0,0,1-2.94-5.63,41.39,41.39,0,0,1-.77-8.84Zm23.81-2.82q-3.6,0-4.87,1.41t-1.28,5.25V146.94c0,2.56.43,4.32,1.28,5.25s2.47,1.41,4.87,1.41h66.56q3.57,0,4.86-1.41c.85-.93,1.28-2.69,1.28-5.25V41.22q0-3.84-1.28-5.25t-4.86-1.41ZM895.73,236H885.24c-2.39,0-3.59-1.2-3.59-3.58V3.58c0-2.38,1.2-3.58,3.59-3.58h10.49c2.39,0,3.59,1.2,3.59,3.58V232.45C899.32,234.83,898.12,236,895.73,236Z"/><path d="M1071.35,37.63a158.76,158.76,0,0,1-8.71,43.27,173.49,173.49,0,0,1-20.6,40.57,195.69,195.69,0,0,1-31.75,35.84,215,215,0,0,1-42.11,29.06c-2.22,1.19-3.84.94-4.86-.77l-5.64-9q-1.78-3.07,1-4.35a198.78,198.78,0,0,0,38.53-25.73,173.68,173.68,0,0,0,28.67-31.36,154.7,154.7,0,0,0,18.81-35.58,149.33,149.33,0,0,0,8.71-38.4q.51-3.84-1-5.25t-5.12-1.41h-81.4q-3.07,0-3.08-3.33v-9q0-3.07,3.08-3.07h86.27q12,0,15.87,4.48T1071.35,37.63Zm65,198.4h-10.49c-2.4,0-3.59-1.2-3.59-3.58V3.58c0-2.38,1.19-3.58,3.59-3.58h10.49c2.39,0,3.59,1.2,3.59,3.58V232.45C1140,234.83,1138.76,236,1136.37,236Z"/></g></g></svg>