<svg xmlns="http://www.w3.org/2000/svg" width="387.98" height="448" viewBox="0 0 387.98 448"><defs><style>.f17808f6-7996-48ec-ac01-75e53109dc22{fill:#36c;}.a8eea13c-d1da-4d95-ae41-df4bb72b0e13{fill:#39f;}.a3305d3d-410c-45b1-9260-1241e8ccf0c6{fill:#6cf;}</style></defs><g id="b61b8365-e69a-4866-bbfb-103f45861b7b" data-name="레이어 2"><g id="b6f570f6-e867-4c1c-aaab-6f75fc440646" data-name="레이어 1"><polygon class="f17808f6-7996-48ec-ac01-75e53109dc22" points="221.7 64 221.7 192 110.85 256 110.85 128 221.7 64"/><polygon class="a8eea13c-d1da-4d95-ae41-df4bb72b0e13" points="0 64 0 192 110.85 256 110.85 128 0 64"/><polygon class="a3305d3d-410c-45b1-9260-1241e8ccf0c6" points="0 64 110.85 0 221.7 64 110.85 128 0 64"/><polygon class="f17808f6-7996-48ec-ac01-75e53109dc22" points="387.98 160 387.98 288 277.13 352 277.13 224 387.98 160"/><polygon class="a8eea13c-d1da-4d95-ae41-df4bb72b0e13" points="166.28 160 166.28 288 277.13 352 277.13 224 166.28 160"/><polygon class="a3305d3d-410c-45b1-9260-1241e8ccf0c6" points="166.28 160 277.13 96 387.98 160 277.13 224 166.28 160"/><polygon class="f17808f6-7996-48ec-ac01-75e53109dc22" points="221.7 256 221.7 384 110.85 448 110.85 320 221.7 256"/><polygon class="a8eea13c-d1da-4d95-ae41-df4bb72b0e13" points="0 256 0 384 110.85 448 110.85 320 0 256"/><path class="a3305d3d-410c-45b1-9260-1241e8ccf0c6" d="M166.28,224l-55.43,32L55.43,224,0,256l110.85,64L221.7,256Z"/></g></g></svg>