<svg xmlns="http://www.w3.org/2000/svg" width="775.96" height="896" viewBox="0 0 775.96 896"><defs><style>.a2fb9026-4cb0-4068-b1d5-05799f20b523{fill:#349b1b;}.ee62290f-790d-4cca-ad22-057398a2f13c{fill:#59d32d;}.ae62882c-0110-413c-ae03-1463c98b446c{fill:#8def59;}</style></defs><g id="b4fc82bf-b05e-4215-9745-648e6a72bb3d" data-name="레이어 2"><g id="f407e780-5d40-4e13-8b6d-baa37cf3d543" data-name="레이어 1"><polygon class="a2fb9026-4cb0-4068-b1d5-05799f20b523" points="221.7 512 221.7 256 443.4 128 443.4 384 221.7 512"/><polygon class="ee62290f-790d-4cca-ad22-057398a2f13c" points="221.7 512 221.7 256 0 128 0 384 221.7 512"/><polygon class="ae62882c-0110-413c-ae03-1463c98b446c" points="443.4 128 221.7 256 0 128 221.7 0 443.4 128"/><polygon class="a2fb9026-4cb0-4068-b1d5-05799f20b523" points="554.26 704 554.26 448 775.96 320 775.96 576 554.26 704"/><polygon class="ee62290f-790d-4cca-ad22-057398a2f13c" points="554.26 704 554.26 448 332.55 320 332.55 576 554.26 704"/><polygon class="ae62882c-0110-413c-ae03-1463c98b446c" points="775.96 320 554.26 448 332.55 320 554.26 192 775.96 320"/><polygon class="a2fb9026-4cb0-4068-b1d5-05799f20b523" points="221.7 896 221.7 640 443.4 512 443.4 768 221.7 896"/><polygon class="ee62290f-790d-4cca-ad22-057398a2f13c" points="221.7 896 221.7 640 0 512 0 768 221.7 896"/><polygon class="ae62882c-0110-413c-ae03-1463c98b446c" points="221.7 512 110.85 448 0 512 221.7 640 443.4 512 332.55 448 221.7 512"/></g></g></svg>