<svg xmlns="http://www.w3.org/2000/svg" width="2223.08" height="467.97" viewBox="0 0 2223.08 467.97"><g id="a0f4f439-c28d-4f0b-ad18-5ecbd391cbd2" data-name="레이어 2"><g id="b27e9da7-afcc-42a6-b52c-59cd96f8dd6e" data-name="레이어 1"><path d="M0,44H36.35V303.62H69.12q25.59,0,57.34-2.05a591.06,591.06,0,0,0,66.05-8.19l4.1,32.25a481.82,481.82,0,0,1-73.73,9q-38.4,1.8-71.17,1.79H0ZM265.22,157.7h73.21V0h35.84V468H338.43V190H265.22v255H229.38V9.73h35.84Z"/><path d="M593.91,151q-2,9.21-37.37,38.4-7.18,5.64-16.64,12.8T519.67,217.6q-10.74,8.19-22.27,16.13t-22.27,15.1l-20.48-26.62a784.91,784.91,0,0,0,84-60.42,166.16,166.16,0,0,0,18.17-16.89A65.06,65.06,0,0,0,567.55,129a66.3,66.3,0,0,0,5.37-17.4,139.2,139.2,0,0,0,1.54-22.53V59.39H468V28.16H712.7V59.39H610.81V84.48a249.6,249.6,0,0,0,1,25.09A50.34,50.34,0,0,0,616.7,127a52.88,52.88,0,0,0,11.52,14.84,229.72,229.72,0,0,0,21,16.9q16.38,12.28,35.33,25.09t38.4,24.57L703,234q-15.87-10.23-32.77-21.76T638.46,190Q620,176.65,608.25,166.4T594.43,151Zm233,114.69V467.46H541.18V265.73h35.33v64.51h215V265.73ZM791.55,435.2V362h-215V435.2Zm35.33-197.12H791V0h35.85Z"/><path d="M1274.87,30.72V74.24q0,41-3.07,81.41a535.24,535.24,0,0,1-13.32,83.45h77.83v31.24H1139.19V468h-36.35V270.34H906.23V239.1h127q5.63-18.42,9.72-38.91t6.91-40.45q2.82-20,4.1-38.14t1.28-32V62H942.07V30.72h148.48v43a793.71,793.71,0,0,1-4.61,83.45,464.92,464.92,0,0,1-15.87,81.92h152.06a476.11,476.11,0,0,0,14.08-77.56q3.33-36.6,3.33-71.43V62H1120.76V30.72Z"/><path d="M1623,42.5V344.58H1406.45V42.5Zm-35.84,32.76H1442.29V311.81h144.89Zm172,392.71h-36.35V0h36.35Z"/><path d="M1862.12,332.29q58.88-33.8,93.7-58.11t52.73-45.57q17.92-21.24,23.3-42.75t5.37-50.18V76.8h-170V44h205.31v92.16a318.85,318.85,0,0,1-2.56,42.5,133.35,133.35,0,0,1-10,35.84,137,137,0,0,1-20.74,32.77q-13.32,15.87-34.56,33.28A578.88,578.88,0,0,1,1953,317.7q-30.46,19.71-71.94,43.77Zm361,135.68h-36.35V0h36.35Z"/></g></g></svg>