<svg xmlns="http://www.w3.org/2000/svg" width="320" height="64" viewBox="0 0 320 64"><defs><style>.b7cae266-34dc-4e25-8eed-6f4b6555ff3b{fill:#aaa;}</style></defs><g id="bdfa4979-c483-492e-8109-651e798af860" data-name="레이어 2"><g id="a233809a-ddef-4688-8501-f637ed2559b3" data-name="레이어 1"><path class="b7cae266-34dc-4e25-8eed-6f4b6555ff3b" d="M32,9.41l6.27,13.36.9,1.93,2.11.32,14.42,2.2L45.14,38.05,43.73,39.5l.32,2,2.45,15L33.94,49.57,32,48.5l-1.94,1.07L17.5,56.51l2.45-15,.32-2-1.41-1.45L8.3,27.22,22.72,25l2.11-.32.9-1.93L32,9.41M32,0,22.11,21.07,0,24.45,16,40.84,12.22,64,32,53.07,51.78,64,48,40.84,64,24.45,41.89,21.07,32,0Z"/><path class="b7cae266-34dc-4e25-8eed-6f4b6555ff3b" d="M96,9.41l6.27,13.36.9,1.93,2.11.32,14.42,2.2L109.14,38.05l-1.41,1.45.32,2,2.45,15L97.94,49.57,96,48.5l-1.94,1.07L81.5,56.51l2.45-15,.32-2-1.41-1.45L72.3,27.22,86.72,25l2.11-.32.9-1.93L96,9.41M96,0,86.11,21.07,64,24.45,80,40.84,76.22,64,96,53.07,115.78,64,112,40.84l16-16.39-22.11-3.38L96,0Z"/><path class="b7cae266-34dc-4e25-8eed-6f4b6555ff3b" d="M160,9.41l6.27,13.36.9,1.93,2.11.32,14.42,2.2L173.14,38.05l-1.41,1.45.32,2,2.45,15-12.56-6.94L160,48.5l-1.94,1.07L145.5,56.51l2.45-15,.32-2-1.41-1.45L136.3,27.22,150.72,25l2.11-.32.9-1.93L160,9.41M160,0l-9.89,21.07L128,24.45l16,16.39L140.22,64,160,53.07,179.78,64,176,40.84l16-16.39-22.11-3.38L160,0Z"/><path class="b7cae266-34dc-4e25-8eed-6f4b6555ff3b" d="M224,9.41l6.27,13.36.9,1.93,2.11.32,14.42,2.2L237.14,38.05l-1.41,1.45.32,2,2.45,15-12.56-6.94L224,48.5l-1.94,1.07L209.5,56.51l2.45-15,.32-2-1.41-1.45L200.3,27.22,214.72,25l2.11-.32.9-1.93L224,9.41M224,0l-9.89,21.07L192,24.45l16,16.39L204.22,64,224,53.07,243.78,64,240,40.84l16-16.39-22.11-3.38L224,0Z"/><path class="b7cae266-34dc-4e25-8eed-6f4b6555ff3b" d="M288,9.41l6.27,13.36.9,1.93,2.11.32,14.42,2.2L301.14,38.05l-1.41,1.45.32,2,2.45,15-12.56-6.94L288,48.5l-1.94,1.07L273.5,56.51l2.45-15,.32-2-1.41-1.45L264.3,27.22,278.72,25l2.11-.32.9-1.93L288,9.41M288,0l-9.89,21.07L256,24.45l16,16.39L268.22,64,288,53.07,307.78,64,304,40.84l16-16.39-22.11-3.38L288,0Z"/></g></g></svg>