<svg xmlns="http://www.w3.org/2000/svg" width="320" height="64" viewBox="0 0 320 64"><defs><style>.f40362c5-8f63-4274-8940-4a7258fb9695{fill:#f2c714;}</style></defs><g id="ab552e19-ef74-403b-8d6f-92cae9418c56" data-name="레이어 2"><g id="a4e11b2f-f3e6-4d88-97d6-15a71efd9b71" data-name="레이어 1"><polygon class="f40362c5-8f63-4274-8940-4a7258fb9695" points="32 0 22.11 21.07 0 24.45 16 40.84 12.22 64 32 53.07 51.78 64 48 40.84 64 24.45 41.89 21.07 32 0"/><polygon class="f40362c5-8f63-4274-8940-4a7258fb9695" points="96 0 86.11 21.07 64 24.45 80 40.84 76.22 64 96 53.07 115.78 64 112 40.84 128 24.45 105.89 21.07 96 0"/><polygon class="f40362c5-8f63-4274-8940-4a7258fb9695" points="160 0 150.11 21.07 128 24.45 144 40.84 140.22 64 160 53.07 179.78 64 176 40.84 192 24.45 169.89 21.07 160 0"/><polygon class="f40362c5-8f63-4274-8940-4a7258fb9695" points="224 0 214.11 21.07 192 24.45 208 40.84 204.22 64 224 53.07 243.78 64 240 40.84 256 24.45 233.89 21.07 224 0"/><polygon class="f40362c5-8f63-4274-8940-4a7258fb9695" points="320 24.45 297.89 21.07 288 0 278.11 21.07 256 24.45 272 40.84 268.22 64 288 53.07 307.78 64 304 40.84 320 24.45"/></g></g></svg>