<svg xmlns="http://www.w3.org/2000/svg" viewBox="0 0 775.96 896"><defs><style>.cls-1{fill:#1c4399;}.cls-2{fill:#2f71d1;}.cls-3{fill:#5aabed;}</style></defs><g id="레이어_2" data-name="레이어 2"><g id="레이어_1-2" data-name="레이어 1"><polygon class="cls-1" points="221.7 512 221.7 256 443.4 128 443.4 384 221.7 512"/><polygon class="cls-2" points="221.7 512 221.7 256 0 128 0 384 221.7 512"/><polygon class="cls-3" points="443.4 128 221.7 256 0 128 221.7 0 443.4 128"/><polygon class="cls-1" points="554.26 704 554.26 448 775.96 320 775.96 576 554.26 704"/><polygon class="cls-2" points="554.26 704 554.26 448 332.55 320 332.55 576 554.26 704"/><polygon class="cls-3" points="775.96 320 554.26 448 332.55 320 554.26 192 775.96 320"/><polygon class="cls-1" points="221.7 896 221.7 640 443.4 512 443.4 768 221.7 896"/><polygon class="cls-2" points="221.7 896 221.7 640 0 512 0 768 221.7 896"/><polygon class="cls-3" points="221.7 512 110.85 448 0 512 221.7 640 443.4 512 332.55 448 221.7 512"/></g></g></svg>