<svg xmlns="http://www.w3.org/2000/svg" width="775.96" height="896" viewBox="0 0 775.96 896"><defs><style>.a4cbb8cd-8cdf-4fd0-8b08-e7196114de2f{fill:#349b1b;}.a845203c-210d-43ba-bad0-935d6b400c9b{fill:#59d32d;}.b32fed13-a2d4-471d-8a46-a93f4b948fa9{fill:#8def59;}</style></defs><g id="b63ffeab-f80b-4175-99fc-0f2dd5844e1d" data-name="레이어 2"><g id="a6f3f0f8-c588-4f73-8c31-babd5df52f4f" data-name="레이어 1"><polygon class="a4cbb8cd-8cdf-4fd0-8b08-e7196114de2f" points="221.7 512 221.7 256 443.4 128 443.4 384 221.7 512"/><polygon class="a845203c-210d-43ba-bad0-935d6b400c9b" points="221.7 512 221.7 256 0 128 0 384 221.7 512"/><polygon class="b32fed13-a2d4-471d-8a46-a93f4b948fa9" points="443.4 128 221.7 256 0 128 221.7 0 443.4 128"/><polygon class="a4cbb8cd-8cdf-4fd0-8b08-e7196114de2f" points="554.26 704 554.26 448 775.96 320 775.96 576 554.26 704"/><polygon class="a845203c-210d-43ba-bad0-935d6b400c9b" points="554.26 704 554.26 448 332.55 320 332.55 576 554.26 704"/><polygon class="b32fed13-a2d4-471d-8a46-a93f4b948fa9" points="775.96 320 554.26 448 332.55 320 554.26 192 775.96 320"/><polygon class="a4cbb8cd-8cdf-4fd0-8b08-e7196114de2f" points="221.7 896 221.7 640 443.4 512 443.4 768 221.7 896"/><polygon class="a845203c-210d-43ba-bad0-935d6b400c9b" points="221.7 896 221.7 640 0 512 0 768 221.7 896"/><polygon class="b32fed13-a2d4-471d-8a46-a93f4b948fa9" points="221.7 512 110.85 448 0 512 221.7 640 443.4 512 332.55 448 221.7 512"/></g></g></svg>