<svg id="a248e35d-0758-499b-9c6d-d6eacc6bc8a7" data-name="레이어 1" xmlns="http://www.w3.org/2000/svg" width="64" height="64" viewBox="0 0 64 64"><defs><style>.f8f58cca-af7e-40db-9af8-8488c3090511{fill:#6cf;}</style></defs><path class="f8f58cca-af7e-40db-9af8-8488c3090511" d="M33.71,2.91h0M32,6.57l6.49,13.86a6.08,6.08,0,0,0,4.6,3.45L58,26.16,47,37.43a6.12,6.12,0,0,0-1.66,5.24L47.9,58.34,35,51.17a6.07,6.07,0,0,0-5.92,0L16.1,58.34l2.55-15.67A6.12,6.12,0,0,0,17,37.43L6,26.16l14.89-2.28a6.09,6.09,0,0,0,4.6-3.45L32,6.57M32,0a2.07,2.07,0,0,0-1.91,1.21l-8.2,17.52a2.08,2.08,0,0,1-1.59,1.19L1.79,22.76A2.11,2.11,0,0,0,.6,26.32l13.53,13.9A2.12,2.12,0,0,1,14.7,42L11.52,61.55A2.11,2.11,0,0,0,13.6,64a2,2,0,0,0,1-.27L31,54.67a2.06,2.06,0,0,1,2,0l16.35,9.06a2.16,2.16,0,0,0,1,.27,2.12,2.12,0,0,0,2.09-2.46L49.3,42a2.12,2.12,0,0,1,.57-1.81L63.4,26.32a2.11,2.11,0,0,0-1.19-3.56L43.7,19.92a2.08,2.08,0,0,1-1.59-1.19L33.91,1.21A2.08,2.08,0,0,0,32,0Z"/></svg>