<svg id="be49e9c3-8350-4043-b8aa-3d4cae3d1017" data-name="레이어 1" xmlns="http://www.w3.org/2000/svg" width="64" height="64" viewBox="0 0 64 64"><defs><style>.ba9d21ff-54b0-448c-865c-c7145b77f96c{fill:#39f;}</style></defs><path class="ba9d21ff-54b0-448c-865c-c7145b77f96c" d="M33.91,1.21l8.2,17.52a2.08,2.08,0,0,0,1.59,1.19l18.51,2.84a2.11,2.11,0,0,1,1.19,3.56L49.87,40.22A2.12,2.12,0,0,0,49.3,42l3.18,19.51a2.12,2.12,0,0,1-3.11,2.19L33,54.67a2.06,2.06,0,0,0-2,0L14.62,63.73a2.11,2.11,0,0,1-3.1-2.18L14.7,42a2.12,2.12,0,0,0-.57-1.81L.6,26.32a2.11,2.11,0,0,1,1.19-3.56L20.3,19.92a2.08,2.08,0,0,0,1.59-1.19l8.2-17.52A2.11,2.11,0,0,1,33.91,1.21Z"/></svg>